# xmcd
#
# Track frame offsets:
#	150
#	16951
#	38765
#	57458
#	75629
#	96324
#	117888
#	143115
#	164003
#	181299
#	201755
#	221734
#	244638
#	266358
#	284870
#	300843
#	319447
#
# Disc length: 4542 seconds
#
# Revision: 1
# Processed by: cddbd v1.5.2PL0 Copyright (c) Steve Scherf et al.
# Submitted via: dBpowerAMP V4.0
#
DISCID=f811bc11
DTITLE=rodney atkins - waching you
DYEAR=2007
DGENRE=Country
TTITLE0=1234
TTITLE1=1234
TTITLE2=1234
TTITLE3=1234
TTITLE4=1234
TTITLE5=1234
TTITLE6=1234
TTITLE7=1234
TTITLE8=1243
TTITLE9=1234
TTITLE10=1234
TTITLE11=1234
TTITLE12=1234
TTITLE13=1234
TTITLE14=1234
TTITLE15=1234
TTITLE16=1234
EXTD=my music
EXTT0=
EXTT1=
EXTT2=
EXTT3=
EXTT4=
EXTT5=
EXTT6=
EXTT7=
EXTT8=
EXTT9=
EXTT10=
EXTT11=
EXTT12=
EXTT13=
EXTT14=
EXTT15=
EXTT16=
PLAYORDER=
